<?xml version="1.0" encoding="utf-8"?>
<!-- Generator: Adobe Illustrator 22.0.0, SVG Export Plug-In . SVG Version: 6.00 Build 0)  -->
<svg version="1.1" id="图层_1" xmlns="http://www.w3.org/2000/svg" xmlns:xlink="http://www.w3.org/1999/xlink" x="0px" y="0px"
	 viewBox="0 0 96 38" style="enable-background:new 0 0 96 38;" xml:space="preserve">
<style type="text/css">
	.st0{filter:url(#filter-1);}
	.st1{fill:#006E45;}
</style>
<filter  filterUnits="objectBoundingBox" height="107.1%" id="filter-1" width="100.8%" x="-0.4%" y="-3.6%">
	<feOffset  dx="0" dy="0" in="SourceAlpha" result="shadowOffsetOuter1"></feOffset>
	<feGaussianBlur  in="shadowOffsetOuter1" result="shadowBlurOuter1" stdDeviation="2"></feGaussianBlur>
	
		<feColorMatrix  in="shadowBlurOuter1" result="shadowMatrixOuter1" type="matrix" values="0 0 0 0 0   0 0 0 0 0   0 0 0 0 0  0 0 0 0.1 0">
		</feColorMatrix>
	<feMerge>
		<feMergeNode  in="shadowMatrixOuter1"></feMergeNode>
		<feMergeNode  in="SourceGraphic"></feMergeNode>
	</feMerge>
</filter>
<title>LOGO_真臻鲜2019-01@1x</title>
<desc>Created with Sketch.</desc>
<g id="页面1">
	<g id="首页-未登录1-1" transform="translate(-357.000000, -73.000000)">
		<g id="导航" transform="translate(-1.000000, 0.000000)" class="st0">
		</g>
	</g>
</g>
<g>
	<path class="st1" d="M7.6,24.6c0-0.1,0-0.2,0-0.3c0-3.7,0-7.4,0-11c0-1.7,1.2-3.1,2.9-3.3c0.2,0,0.4,0,0.7,0c1.3,0,2.5,0,3.8,0
		c0.2,0,0.3,0,0.4-0.2c0.1-0.3,0.3-0.5,0.4-0.8c0,0,0-0.1,0.1-0.2c-0.1,0-0.2,0-0.2,0c-3.3,0-6.5,0-9.8,0c-0.6,0-1-0.3-1.2-0.8
		C4.4,7.2,4.9,6.5,5.7,6.4c0.1,0,0.1,0,0.2,0c3.7,0,7.3,0,11,0c0.2,0,0.2,0,0.3-0.2c0.3-0.6,0.6-1.1,0.9-1.6
		c0.2-0.5,0.7-0.7,1.2-0.6c0.5,0.1,0.8,0.4,0.9,0.9c0.1,0.3,0,0.5-0.1,0.8C20,6,19.9,6.2,19.7,6.4c0.1,0,0.2,0,0.3,0
		c3.3,0,6.6,0,9.9,0c0.6,0,1.1,0.4,1.2,1c0.1,0.7-0.4,1.3-1,1.4c-0.1,0-0.2,0-0.2,0c-3.7,0-7.4,0-11.1,0c-0.2,0-0.3,0-0.3,0.2
		c-0.2,0.3-0.3,0.6-0.5,1c0.1,0,0.2,0,0.2,0c2.3,0,4.6,0,7,0c0.9,0,1.7,0.2,2.4,0.9c0.7,0.6,1.1,1.4,1.1,2.4c0,3.7,0,7.4,0,11.1
		c0,0.1,0,0.1,0,0.2c0.1,0,0.1,0,0.2,0c0.6,0,1.3,0,1.9,0c0.6,0,1,0.3,1.2,0.9c0.2,0.7-0.3,1.5-1.1,1.5c0,0-0.1,0-0.1,0
		c-8.5,0-17.1,0-25.6,0c-0.6,0-1-0.3-1.2-0.8c-0.2-0.8,0.3-1.5,1.2-1.5c0.8,0,1.5,0,2.3,0C7.4,24.6,7.5,24.6,7.6,24.6z M26.2,19.6
		c-5.5,0-10.9,0-16.3,0c0,0.5,0,1,0,1.5c5.4,0,10.9,0,16.3,0C26.2,20.6,26.2,20.1,26.2,19.6z M9.9,13.7c5.5,0,10.9,0,16.3,0
		c0-0.2,0-0.4,0-0.5c0-0.4-0.2-0.7-0.6-0.8c-0.2-0.1-0.5-0.1-0.7-0.1c-4.6,0-9.2,0-13.8,0c-0.1,0-0.3,0-0.4,0
		c-0.6,0.1-0.9,0.4-0.9,1C9.9,13.4,9.9,13.6,9.9,13.7z M26.2,16.1c-5.5,0-10.9,0-16.3,0c0,0.4,0,0.8,0,1.2c5.4,0,10.9,0,16.3,0
		C26.2,16.9,26.2,16.5,26.2,16.1z M26.2,23.4c-5.5,0-10.9,0-16.3,0c0,0.4,0,0.7,0,1.1c5.4,0,10.9,0,16.3,0
		C26.2,24.2,26.2,23.8,26.2,23.4z"/>
	<path class="st1" d="M12.3,28.5c0,0.3-0.1,0.5-0.3,0.8c0,0-0.1,0.1-0.1,0.1c-1.2,1.2-2.4,2.4-3.6,3.6c-0.4,0.4-1,0.5-1.5,0.2
		c-0.6-0.4-0.7-1.3-0.2-1.8c1.2-1.2,2.5-2.5,3.7-3.7c0.3-0.3,0.8-0.4,1.3-0.2C12,27.6,12.3,28,12.3,28.5z"/>
	<path class="st1" d="M24.5,27.3c0.3,0,0.6,0.1,0.9,0.4c1.2,1.2,2.4,2.4,3.6,3.6c0.5,0.5,0.5,1.2,0,1.7c-0.5,0.5-1.2,0.4-1.7,0
		c-1.2-1.2-2.4-2.4-3.6-3.6c-0.3-0.3-0.4-0.7-0.3-1.2c0.1-0.4,0.4-0.7,0.8-0.8C24.3,27.4,24.4,27.4,24.5,27.3z"/>
</g>
<path class="st1" d="M37.4,7.5c-0.1,0-0.2,0-0.2,0c-0.7,0-1.5,0-2.2,0c-0.6,0-1-0.3-1.1-0.8c-0.3-0.8,0.3-1.5,1.1-1.5
	c1.4,0,2.8,0,4.2,0c2,0,4,0,6,0c0.6,0,1.1,0.2,1.3,0.8c2.2,0,4.5,0,6.7,0c0.1,0,0.1,0,0.2-0.1c0.2-0.4,0.4-0.8,0.6-1.2
	c0.3-0.5,0.8-0.8,1.3-0.6c0.5,0.1,0.9,0.6,0.9,1.2c0,0.1-0.1,0.3-0.1,0.4c0,0.1-0.1,0.2-0.1,0.3C55.9,6,56,6,56,6c1.6,0,3.3,0,4.9,0
	c0.7,0,1.2,0.5,1.2,1.1c0,0.7-0.5,1.2-1.2,1.2c-2,0-4,0-6,0c-0.2,0-0.2,0-0.3,0.2c-0.2,0.5-0.5,1-0.7,1.5c0,0.1,0,0.1-0.1,0.2
	c0.1,0,0.2,0,0.2,0c2.1,0,4.3,0,6.4,0c0.6,0,1,0.4,1.1,0.9c0.1,0.6-0.2,1.1-0.7,1.3c-0.2,0.1-0.4,0.1-0.5,0.1c-2.5,0-4.9,0-7.4,0
	c-0.1,0-0.2,0-0.3,0.2c-0.3,0.6-0.5,1.1-0.8,1.7c0.1,0,0.2,0,0.2,0c3.3,0,6.6,0,9.8,0c0.6,0,1,0.3,1.2,0.9c0.2,0.7-0.4,1.4-1.1,1.4
	c-0.9,0-1.8,0-2.7,0c-0.1,0-0.1,0-0.2,0c0,0.1,0.1,0.1,0.1,0.2c0.9,1.6,1.9,3.1,2.8,4.7c0.4,0.7,0.1,1.5-0.6,1.7
	c-0.5,0.2-1.1,0-1.3-0.5c-0.4-0.6-0.7-1.2-1.1-1.8c-0.1-0.1-0.1-0.1-0.3-0.1c-0.6,0.1-1.3,0.2-1.9,0.3c-0.5,0.1-1,0.2-1.4,0.2
	c0,0-0.1,0.1-0.1,0.1c0,0.8,0,1.6,0,2.4c0,0,0,0,0,0.1c0.1,0,0.1,0,0.2,0c1.7,0,3.4,0,5.1,0c0.6,0,1.1,0.4,1.1,1
	c0.1,0.5-0.3,1.1-0.8,1.2c-0.1,0-0.2,0-0.4,0c-0.5,0-1,0-1.4,0c-0.1,0-0.1,0-0.2,0c0,0.1,0.1,0.1,0.1,0.2c1,2.1,1.9,4.2,2.9,6.3
	c0.3,0.7,0,1.4-0.7,1.6c-0.6,0.2-1.1-0.1-1.4-0.7c-0.4-0.9-0.8-1.8-1.2-2.6c-0.6-1.3-1.1-2.5-1.7-3.8c-0.1-0.3-0.3-0.6-0.2-1
	c-0.5,0-0.9,0-1.4,0c0,0.1,0,0.2,0,0.2c0,2.2,0,4.5,0,6.7c0,0.7-0.4,1.1-1,1.2c-0.6,0.1-1.2-0.4-1.3-1c0-0.1,0-0.2,0-0.2
	c0-2.2,0-4.4,0-6.6c0-0.1,0-0.2,0-0.2c-0.4,0-0.7,0-1,0c0,0-0.1,0.1-0.1,0.1c-0.6,1.4-1.2,2.8-1.7,4.2c-0.4,1-0.8,2-1.2,3
	c-0.2,0.4-0.5,0.7-1,0.7c-0.4,0-0.8-0.1-1-0.5c-0.2-0.3-0.3-0.7-0.1-1.1c0.6-1.5,1.2-3,1.8-4.5c0.3-0.6,0.5-1.3,0.8-1.9
	c0,0,0-0.1,0.1-0.2c-0.1,0-0.1,0-0.2,0c-0.6,0-1.3,0-1.9,0c-0.5,0-0.9-0.2-1.1-0.6c-0.2-0.4-0.2-0.9,0.1-1.3c0,0,0,0,0-0.1
	c0,0,0,0,0,0c-0.3,0.2-0.6,0.3-0.9,0.3c-1.1,0-2.3,0-3.4,0c-0.1,0-0.1,0-0.2,0c0,1.9,0,3.7,0,5.6c0.5-0.1,0.9-0.1,1.4-0.2
	c0.8-0.1,1.6-0.2,2.4-0.3c0.7-0.1,1.3,0.3,1.4,1c0.1,0.6-0.4,1.2-1,1.3c-1.6,0.2-3.2,0.4-4.8,0.6c-1.4,0.2-2.9,0.4-4.3,0.6
	c-0.5,0.1-0.9,0.1-1.4,0.2c-0.6,0.1-1.2-0.4-1.3-1c-0.1-0.7,0.3-1.2,1-1.3c1.2-0.2,2.3-0.3,3.5-0.5c0.3,0,0.5-0.1,0.8-0.1
	c0.1,0,0.2-0.1,0.2-0.2c0-1.9,0-3.7,0-5.6c0-0.1-0.1-0.2-0.2-0.2c-1.3,0-2.7,0-4,0c-0.5,0-0.9-0.2-1.1-0.7c-0.4-0.8,0.2-1.6,1-1.6
	c1.4,0,2.7,0,4.1,0c0.2,0,0.2,0,0.2-0.2c0-1.4,0-2.8,0-4.2c0-0.1,0-0.1,0-0.2c-0.1,0-0.1,0-0.2,0c-0.6,0-1.3,0-1.9,0
	c-0.8-0.1-1.6-0.4-2-1.1c-0.3-0.6-0.3-1.2-0.1-1.8c0.7-2.3,1.5-4.6,2.2-6.9C37.3,7.9,37.3,7.7,37.4,7.5z M42.6,15.6
	c0-0.1,0-0.1,0-0.2c-0.3-1.2-0.6-2.3-0.8-3.5c-0.1-0.3-0.2-0.6-0.2-0.9c-0.1-0.6,0.4-1.1,1-1.2c0.6-0.1,1.1,0.3,1.3,0.9
	c0.4,1.6,0.8,3.3,1.2,4.9c0.2,0.8-0.2,1.4-1,1.5c-0.1,0-0.2,0.1-0.2,0.2c-0.2,0.4-0.5,0.6-0.9,0.6c-0.4,0-0.7,0-1.1,0
	c-0.1,0-0.2,0-0.3,0c0,1.5,0,3,0,4.6c0.1,0,0.1,0,0.2,0c1.2,0,2.4,0,3.6,0c0.6,0,1.1,0.5,1.1,1.1c0,0.3-0.1,0.5-0.2,0.7
	c0.4-0.3,0.8-0.3,1.3-0.3c1.7,0,3.4,0,5.1,0c0.1,0,0.1,0,0.2,0c0-0.7,0-1.5,0-2.2c0,0-0.1,0-0.1,0c-0.9,0.2-1.9,0.3-2.8,0.5
	c-0.6,0.1-1.1-0.1-1.4-0.6c0-0.1-0.1-0.1-0.1-0.2c0,0.1-0.1,0.1-0.1,0.1c-0.1,0.2-0.2,0.4-0.3,0.6c-0.3,0.5-0.8,0.7-1.4,0.6
	c-0.6-0.2-1.1-0.9-0.7-1.7c0.7-1.4,1.4-2.8,2-4.2c0-0.1,0-0.1,0.1-0.2c-0.4,0-0.7,0-1.1,0c-0.2,0-0.4,0-0.5,0
	c-0.6-0.1-1-0.6-0.9-1.3c0.1-0.6,0.6-1,1.2-1c0.8,0,1.5,0,2.3,0c0.1,0,0.2,0,0.3-0.2c0.2-0.4,0.3-0.7,0.5-1c0.1-0.2,0.2-0.5,0.3-0.7
	c-0.1,0-0.2,0-0.2,0c-0.8,0-1.6,0-2.4,0c-0.1,0-0.3,0-0.4,0c-0.6-0.1-0.9-0.7-0.9-1.2c0.1-0.6,0.5-1,1.2-1c1.2,0,2.4,0,3.6,0
	c0.1,0,0.2,0,0.2-0.1c0.2-0.5,0.5-1,0.7-1.6c0,0,0-0.1,0.1-0.2c-0.1,0-0.2,0-0.2,0c-1.7,0-3.4,0-5.1,0c-0.6,0-1-0.2-1.2-0.8
	c0,0,0,0,0,0c-0.3,0-0.6,0-1,0c-1.5,0-3.1,0-4.6,0c-0.2,0-0.2,0-0.3,0.2c-0.8,2.4-1.6,4.9-2.4,7.3c-0.1,0.2-0.1,0.4-0.2,0.6
	C39,15.6,40.8,15.6,42.6,15.6z M57.5,18.8C57.5,18.7,57.5,18.7,57.5,18.8c-0.4-0.7-0.8-1.3-1.2-2c0-0.1-0.1-0.1-0.2-0.1
	c-1.8,0-3.5,0-5.3,0c-0.1,0-0.2,0-0.2,0.1c-0.4,0.8-0.8,1.6-1.2,2.5c-0.1,0.3-0.3,0.6-0.4,0.9C51.9,19.7,54.7,19.3,57.5,18.8z"/>
<g>
	<path class="st1" d="M69.8,7.2c0.1,0,0.2,0,0.2,0c1.6,0,3.2,0,4.8,0c0.5,0,0.9,0.1,1.3,0.3C77,8,77.4,8.9,76.9,9.8
		c-0.1,0.3-0.4,0.6-0.6,0.9c-0.3,0.3-0.6,0.7-0.8,1c0.1,0,0.1,0.1,0.2,0.1c1.2,0.6,1.9,1.6,1.9,3c0,3.2,0,6.4,0,9.5
		c0,1.7-1.2,3.1-3,3.3c-0.2,0-0.4,0-0.6,0c-1.5,0-3,0-4.5,0c-1.8-0.1-3-1.3-3.2-2.8c0-0.1,0-0.3,0-0.4c0-3.2,0-6.4,0-9.6
		c0-1.6,1.2-3,2.8-3.2c0.3,0,0.6-0.1,0.9-0.1c0.9,0,1.8,0,2.6,0c0.1,0,0.2,0,0.2-0.1c0.5-0.5,1-1.1,1.4-1.7c0,0,0,0,0.1-0.1
		c-0.1,0-0.1,0-0.2,0c-1.4,0-2.7,0-4.1,0c-0.5,0-0.9,0-1.3-0.2c-0.7-0.3-1.3-0.7-1.4-1.5c-0.1-0.5,0-0.9,0.3-1.3
		c0.1-0.2,0.2-0.4,0.4-0.6c0.5-0.6,1-1.2,1.5-1.8c0.3-0.4,0.7-0.5,1.2-0.4c0.5,0.1,0.7,0.4,0.8,0.8c0.1,0.4,0,0.7-0.2,1
		c-0.4,0.5-0.8,1-1.2,1.5C69.9,7.1,69.9,7.1,69.8,7.2z M70.7,13.7c-0.4,0-0.8,0-1.2,0c-0.7,0.1-1,0.4-1,1.1c0,1.2,0,2.4,0,3.5
		c0,0.1,0,0.2,0.2,0.2c0.6,0,1.2,0,1.8,0c0.1,0,0.1,0,0.2,0C70.7,16.9,70.7,15.3,70.7,13.7z M73.1,18.5
		C73.1,18.5,73.1,18.5,73.1,18.5c0.7,0,1.4,0,2.1,0c0.1,0,0.1-0.1,0.1-0.2c0-1.2,0-2.5,0-3.7c0-0.4-0.2-0.7-0.6-0.8
		c-0.2-0.1-0.4-0.1-0.6-0.1c-0.3,0-0.7,0-1,0C73.1,15.3,73.1,16.9,73.1,18.5z M70.7,25.3c0-1.5,0-3,0-4.4c-0.1,0-0.1,0-0.1,0
		c-0.6,0-1.2,0-1.9,0c-0.1,0-0.2,0-0.2,0.2c0,1.1,0,2.2,0,3.3c0,0.5,0.3,0.8,0.7,0.9C69.7,25.4,70.2,25.3,70.7,25.3z M73.1,20.9
		c0,1.5,0,3,0,4.4c0.3,0.1,1.2,0,1.5,0c0.4-0.1,0.7-0.4,0.7-0.9c0-1.1,0-2.2,0-3.4c0-0.1,0-0.1-0.2-0.1c-0.4,0-0.7,0-1.1,0
		C73.7,20.9,73.4,20.9,73.1,20.9z"/>
	<path class="st1" d="M83.8,24.3c0-2,0-4,0-6c-0.1,0-0.1,0-0.2,0c-1.3,0-2.7,0-4,0c-0.6,0-1.1-0.4-1.2-0.9c-0.1-0.8,0.4-1.4,1.2-1.4
		c1.3,0,2.7,0,4,0c0.1,0,0.1,0,0.2,0c0-0.1,0-0.1,0-0.2c0-1.5,0-3.1,0-4.6c0-0.2-0.1-0.2-0.2-0.2c-1.5,0-3.1,0-4.6,0
		c-0.6,0-1.1-0.4-1.2-1c-0.1-0.6,0.4-1.3,1-1.3c0.7,0,1.4,0,2,0c0.1,0,0.1,0,0.2,0c0-0.2-0.1-0.4-0.1-0.6c-0.2-1-0.4-2-0.5-2.9
		c-0.1-0.6,0.3-1.2,0.9-1.4c0.6-0.1,1.2,0.3,1.3,0.9c0.2,1.3,0.5,2.6,0.7,3.8c0,0.1,0.1,0.2,0.2,0.2c0.9,0,1.8,0,2.7,0
		c0.1,0,0.2-0.1,0.2-0.2c0.4-1.3,0.8-2.6,1.2-3.9C88.1,3.8,89,3.5,89.6,4c0.4,0.3,0.6,0.8,0.4,1.3c-0.3,1.1-0.7,2.2-1,3.2
		c0,0.1,0,0.1,0,0.2c0.1,0,0.1,0,0.2,0c0.7,0,1.3,0,2,0c0.9,0,1.4,1,0.9,1.8c-0.2,0.4-0.6,0.5-1,0.5c-1.6,0-3.1,0-4.7,0
		c-0.1,0-0.1,0-0.2,0c0,1.7,0,3.3,0,5c0.1,0,0.1,0,0.2,0c1.3,0,2.7,0,4,0c0.6,0,1.1,0.4,1.2,0.9c0.1,0.7-0.4,1.4-1.1,1.4
		c-1.3,0-2.7,0-4,0c-0.1,0-0.1,0-0.2,0c0,2,0,4,0,6c0.1,0,0.1,0,0.2,0c1.6,0,3.1,0,4.7,0c0.7,0,1.2,0.5,1.2,1.2
		c0,0.6-0.5,1.1-1.2,1.1c-1.6,0-3.1,0-4.7,0c-0.1,0-0.1,0-0.2,0c0,0.1,0,0.1,0,0.2c0,2.2,0,4.4,0,6.6c0,0.6-0.4,1.1-1,1.2
		c-0.5,0.1-1.1-0.3-1.2-0.8c0-0.1,0-0.2,0-0.4c0-2.2,0-4.4,0-6.6c0-0.1,0-0.1,0-0.2c-0.1,0-0.1,0-0.2,0c-1.5,0-2.9,0-4.4,0
		c-0.6,0-1.1-0.4-1.2-0.9c-0.1-0.7,0.4-1.4,1.2-1.4c1.5,0,3,0,4.4,0C83.7,24.3,83.8,24.3,83.8,24.3z"/>
	<path class="st1" d="M78,29.2c0.6,0,1.1,0.5,1.2,1.1c0,0.5-0.4,1.1-0.9,1.2c-1.9,0.3-3.8,0.7-5.7,1c-1.7,0.3-3.4,0.6-5.2,0.9
		c-0.4,0.1-0.8,0.1-1.1,0.2c-0.6,0.1-1.2-0.3-1.3-1c-0.1-0.6,0.3-1.2,0.9-1.3c1.4-0.3,2.8-0.5,4.2-0.8c1.8-0.3,3.6-0.6,5.4-1
		c0.8-0.1,1.6-0.3,2.4-0.4C77.9,29.2,77.9,29.2,78,29.2z"/>
</g>
</svg>
